<svg xmlns="http://www.w3.org/2000/svg" width="251" height="263" viewBox="0 0 251 263">
  <g id="Content" transform="translate(-116 -1797)">
    <text id="Inbox" transform="translate(122 1912)" font-size="18" font-family="Lato-Regular, Lato" letter-spacing="0.025em" opacity="0.8"><tspan x="93.703" y="18">Inbox</tspan></text>
    <text id="Lorem_ipsum_dolor_sit_amet_consectetur_adipiscing_elit._Cras_ultrices_accumsan_ornare._Phasellus_tristique" data-name="Lorem ipsum dolor sit amet, consectetur adipiscing elit. Cras ultrices accumsan ornare. Phasellus tristique" transform="translate(116 1954)" font-size="16" font-family="Poppins-Light, Poppins" font-weight="300" letter-spacing="0.01em" opacity="0.65"><tspan x="13.604" y="17">Lorem ipsum dolor sit amet, </tspan><tspan x="17.172" y="42">consectetur adipiscing elit. </tspan><tspan x="29.468" y="67">Cras ultrices accumsan </tspan><tspan x="22.596" y="92">ornare. Phasellus tristique</tspan></text>
    <circle id="Эллипс_5" data-name="Эллипс 5" cx="44" cy="44" r="44" transform="translate(198 1797)" fill="#325dff"/>
    <path id="Контур_11" data-name="Контур 11" d="M28,32H2a2.006,2.006,0,0,1-2-2V18L4,4H8V6H5.45L2,18H15a1.46,1.46,0,0,1-.45-.1,1.192,1.192,0,0,1-.55-.3L8.35,11.9a1.131,1.131,0,0,1,1.6-1.6l4,4.05V1A1.015,1.015,0,0,1,15,0a1.047,1.047,0,0,1,1.05,1V14.25L20,10.3a1.131,1.131,0,1,1,1.6,1.6l-5.7,5.7a1.022,1.022,0,0,1-.45.25.845.845,0,0,1-.5.15h13L24.5,6H22V4h4l4,14V30A2.006,2.006,0,0,1,28,32ZM20,18H10v4H20Zm8,3a1,1,0,0,0-1-1H22v4H8V20H3a1,1,0,0,0-1,1v8a1,1,0,0,0,1,1H27a1,1,0,0,0,1-1Z" transform="translate(227 1825)" fill="#fff" fill-rule="evenodd"/>
  </g>
</svg>
